<?xml version="1.0" encoding="utf-8"?>
<!-- Generator: Adobe Illustrator 19.2.1, SVG Export Plug-In . SVG Version: 6.00 Build 0)  -->
<svg version="1.1" id="Layer_1" xmlns="http://www.w3.org/2000/svg" xmlns:xlink="http://www.w3.org/1999/xlink" x="0px" y="0px"
	 viewBox="0 0 83 69" style="enable-background:new 0 0 83 69;" xml:space="preserve">
<style type="text/css">
	.st0{fill:none;stroke:#000000;stroke-width:3.5;stroke-linecap:round;stroke-linejoin:round;stroke-miterlimit:10;}
</style>
<path class="st0" d="M60,38.5h7c0,0,5.4,0.1,2.3,3.7c-4,4.7-9.4,9.2-15.3,11.2c-5.7,1.9-12.9,1-17.2-0.2c-4.3-1.1-7.7-4.3-7.8-9
	s1.9-8.4,6.1-9.7c5.2-1.6,10.5,1,10.5,1"/>
<path class="st0" d="M31.5,50.3c-1.9-1.1-13.7-6.5-15-7.3s-3.6-1.9,0-2.8c3.6-0.9,14.6-2.9,14.6-2.9"/>
<path class="st0" d="M44.3,39.6C46.7,35,54.5,20.5,56,17.5s2.3-3.9,3.6-1s3.4,6,3.1,10.7c-0.3,4.7-0.9,7.8-4,10.8
	c-3.2,3-6.9,5.6-9.6,5.7"/>
<path class="st0" d="M41.5,34c0.1-3.2,1.4-14.2,1.7-17.2s0.2-4.1,2.3-2.7s5.7,4.2,7.6,9"/>
<path class="st0" d="M37.6,42.9c0,0.4-0.3,0.7-0.7,0.7s-0.7-0.3-0.7-0.7s0.3-0.7,0.7-0.7S37.6,42.5,37.6,42.9"/>
</svg>
