<?xml version="1.0" encoding="utf-8"?>
<!-- Generator: Adobe Illustrator 19.2.1, SVG Export Plug-In . SVG Version: 6.00 Build 0)  -->
<svg version="1.1" id="Layer_1" xmlns="http://www.w3.org/2000/svg" xmlns:xlink="http://www.w3.org/1999/xlink" x="0px" y="0px"
	 viewBox="0 0 109 51" style="enable-background:new 0 0 109 51;" xml:space="preserve">
<style type="text/css">
	.st0{fill:none;stroke:#000000;stroke-width:4;stroke-miterlimit:10;}
</style>
<path class="st0" d="M29.7,17.6c4.9-0.2,5.1-1.5,8.3-4.4c3.2-3,7.4-5,11-3.6c3.6,1.4,9.9,6.2,14.2,3c4.3-3.2,9.2-6.6,16-3
	c7,3.7,4.1,13,11.7,12.8c6.4-0.2,10,2.5,13.3,7.6c1.6,2.4,1.1,5.9-1.9,8.5c-3,2.5-9.2,1.9-19.2,1.6c-10.1-0.4-40.8-0.3-54.5-0.1
	C15,40.1,11.9,40.7,8.4,37.2S5.1,30.1,7.6,27c2-2.5,4.8-7.2,10.1-8.3C23.1,17.5,29.7,17.6,29.7,17.6z"/>
</svg>
