<?xml version="1.0" encoding="utf-8"?>
<!-- Generator: Adobe Illustrator 19.2.1, SVG Export Plug-In . SVG Version: 6.00 Build 0)  -->
<svg version="1.1" id="Layer_1" xmlns="http://www.w3.org/2000/svg" xmlns:xlink="http://www.w3.org/1999/xlink" x="0px" y="0px"
	 viewBox="0 0 968 720" style="enable-background:new 0 0 968 720;" xml:space="preserve">
<style type="text/css">
	.st0{fill:none;stroke:#845142;stroke-width:4;stroke-miterlimit:10;}
	.st1{fill:none;stroke:#845142;stroke-width:12;stroke-miterlimit:10;}
	.st2{fill:none;stroke:#845142;stroke-width:35;stroke-miterlimit:10;}
</style>
<path class="st0" d="M899.8,638.1c-26-14-59.2-28-101.1-42.1C625.3,537.7,461,486,327,435S134.3,329.9,108.1,303"/>
<path class="st1" d="M113.9,308.8c-26.2-26.9-48-73.4-47.4-113s5.4-52.3,23.8-81.9S146.5,63.3,181,54s80.9-12,124.9,5.4
	c45.4,18,66.7,42.3,77.7,75.5c12.5,37.5,6.7,90.4-30.8,119.7s-85.3,28.3-91,28.5"/>
<path class="st2" d="M264.9,283c-5.6,0.1-22.2,0.7-46.7-10.7s-35.4-26.9-43.9-47.9c-8.5-21-3.6-51,15.2-68.4s49.1-21.6,77.7-18.9"/>
</svg>
