<?xml version="1.0" encoding="utf-8"?>
<!-- Generator: Adobe Illustrator 19.2.1, SVG Export Plug-In . SVG Version: 6.00 Build 0)  -->
<svg version="1.1" id="Layer_1" xmlns="http://www.w3.org/2000/svg" xmlns:xlink="http://www.w3.org/1999/xlink" x="0px" y="0px"
	 viewBox="0 0 117 93" style="enable-background:new 0 0 117 93;" xml:space="preserve">
<style type="text/css">
	.st0{fill:none;stroke:#000000;stroke-width:3.5;stroke-linecap:round;stroke-linejoin:round;stroke-miterlimit:10;}
</style>
<path class="st0" d="M34.4,44.9c0,0-6.7-0.3-8.5-0.2s-4.5,0.8-1.8,5c3.4,5.5,8.5,11,14.4,13.9c5.8,2.9,13.4,3,18.1,2.4
	c4.7-0.5,8.8-3.3,9.6-8.2c0.7-4.9-0.7-9.1-4.9-11.1c-2.2-1.1-4.7-0.9-6.8-1c-2.9-0.1-5.2,0.2-5.2,0.2"/>
<path class="st0" d="M63,64.5c2.2-0.8,17-6,18.4-6.5c1.6-0.7,4.9-0.7,1.2-2.1C78.9,54.5,65,50.2,65,50.2"/>
<path class="st0" d="M50.9,50.6c-1.8-5.3-7.8-21.8-8.9-25.1s-1.8-4.5-3.6-1.7s-4.6,5.8-5,10.7s-0.3,8.3,2.5,12s6.4,6.9,9.2,7.6"/>
<path class="st0" d="M54.7,45.1c0.4-3.3,0.8-15.2,1-18.4s0.4-4.3-2-3.2s-6.6,3.5-9.4,8.3"/>
<path class="st0" d="M57.4,55c-0.1,0.4,0.2,0.8,0.7,0.9c0.4,0.1,0.8-0.2,0.9-0.7c0.1-0.4-0.2-0.8-0.7-0.9
	C57.8,54.4,57.5,54.6,57.4,55"/>
</svg>
